<svg xmlns="http://www.w3.org/2000/svg" viewBox="0 0 64 64" fill="none">
  <rect width="64" height="64" rx="16" fill="#1D1D1F"/>
  <path d="M32 14c-1.2 6.5-3.8 11.2-7.8 14.1-3.2 2.3-6.4 2.9-9.2 2.7 2.1 8.8 8.5 14.7 17 16.2v5.5h4v-5.5c8.5-1.5 14.9-7.4 17-16.2-2.8.2-6-.4-9.2-2.7C35.8 25.2 33.2 20.5 32 14z" fill="#34C759"/>
  <path d="M32 18.5c.8 4.4 2.6 7.7 5.2 9.9 1.8 1.5 3.7 2.2 5.4 2.4-.9 4.6-3.8 8.2-7.8 9.8v-2.1c2.5-1.3 4.4-3.8 5.2-7-.9-.1-1.9-.4-2.9-1C34.5 28.4 33 25.5 32 22v-3.5z" fill="#A8E6CF" opacity="0.85"/>
</svg>
